<svg width="35" height="35" viewBox="0 0 35 35" fill="none" xmlns="http://www.w3.org/2000/svg">
<path d="M31.8238 10.8369C31.6897 10.643 31.5106 10.4846 31.3018 10.3751C31.093 10.2656 30.8608 10.2084 30.6251 10.2083H10.694L9.01112 6.16876C8.79046 5.63679 8.41681 5.18232 7.93753 4.86298C7.45826 4.54364 6.89496 4.3738 6.31904 4.37501H2.91675V7.29167H6.31904L13.2374 23.8948C13.3482 24.1604 13.5351 24.3874 13.7747 24.5469C14.0142 24.7065 14.2956 24.7917 14.5834 24.7917H26.2501C26.8582 24.7917 27.4022 24.414 27.6165 23.8467L31.9915 12.18C32.0742 11.9592 32.1022 11.7217 32.0729 11.4878C32.0437 11.2539 31.9583 11.0305 31.8238 10.8369Z" fill="white"/>
<path d="M15.3125 30.625C16.5206 30.625 17.5 29.6456 17.5 28.4375C17.5 27.2294 16.5206 26.25 15.3125 26.25C14.1044 26.25 13.125 27.2294 13.125 28.4375C13.125 29.6456 14.1044 30.625 15.3125 30.625Z" fill="white"/>
<path d="M25.5208 30.625C26.7289 30.625 27.7083 29.6456 27.7083 28.4375C27.7083 27.2294 26.7289 26.25 25.5208 26.25C24.3126 26.25 23.3333 27.2294 23.3333 28.4375C23.3333 29.6456 24.3126 30.625 25.5208 30.625Z" fill="white"/>
</svg>
