<svg width="44" height="39" viewBox="0 0 44 39" fill="none" xmlns="http://www.w3.org/2000/svg">
<g clip-path="url(#clip0_108_114)">
<path d="M19.3182 34.0852C20.812 34.0852 22.023 32.9992 22.023 31.6597C22.023 30.3201 20.812 29.2341 19.3182 29.2341C17.8243 29.2341 16.6133 30.3201 16.6133 31.6597C16.6133 32.9992 17.8243 34.0852 19.3182 34.0852Z" fill="white"/>
<path d="M31.941 34.0852C33.4348 34.0852 34.6458 32.9992 34.6458 31.6597C34.6458 30.3201 33.4348 29.2341 31.941 29.2341C30.4471 29.2341 29.2361 30.3201 29.2361 31.6597C29.2361 32.9992 30.4471 34.0852 31.941 34.0852Z" fill="white"/>
<path d="M38.7031 6.59578H14.0599L11.979 2.11663C11.7058 1.52665 11.2435 1.02267 10.6505 0.66859C10.0576 0.314505 9.36076 0.126253 8.64838 0.127694H4.44141V3.36174H8.65019L17.203 21.7715C17.4825 22.3731 18.1407 22.766 18.8674 22.766H33.2934C34.0453 22.766 34.7179 22.3472 34.983 21.7182L40.3928 8.78199C40.4941 8.53716 40.528 8.27401 40.4916 8.01491C40.4552 7.75582 40.3496 7.50843 40.1837 7.29379C40.0178 7.07915 39.7966 6.90361 39.5388 6.78208C39.281 6.66056 38.9943 6.59664 38.7031 6.59578V6.59578ZM31.4901 16.2979H27.8836V19.5319H24.2771V16.2979H20.6706V13.0639H24.2771V9.82982H27.8836V13.0639H31.4901V16.2979Z" fill="white"/>
</g>
<defs>
<clipPath id="clip0_108_114">
<rect width="43.2779" height="38.8085" fill="white" transform="translate(0.384033 0.127686)"/>
</clipPath>
</defs>
</svg>
