<svg width="129" height="60" viewBox="0 0 129 60" fill="none" xmlns="http://www.w3.org/2000/svg">
<path d="M33.386 17.5727C33.35 16.8167 33.332 16.0607 33.332 15.3047C33.332 14.5487 33.35 13.7927 33.386 13.0367L23.558 39.2267H19.454L9.626 13.0367C9.662 13.7927 9.68 14.5487 9.68 15.3047C9.68 16.0607 9.662 16.8167 9.626 17.5727L8.762 43.1687H4.01L5.684 7.0967H11.678L21.506 33.8267L31.334 7.0967H37.328L39.002 43.1687H34.25L33.386 17.5727Z" fill="white"/>
<path d="M58.86 43.8707C48.492 43.8707 43.308 37.6067 43.308 25.0787C43.308 18.5987 44.622 13.8647 47.25 10.8767C49.914 7.8887 53.568 6.3947 58.212 6.3947C60.66 6.3947 63.378 6.8087 66.366 7.6367L65.394 11.6867C62.982 11.1467 60.858 10.8767 59.022 10.8767C55.71 10.8767 53.118 11.9387 51.246 14.0627C49.41 16.1867 48.492 19.7867 48.492 24.8627C48.492 34.5827 52.29 39.4427 59.886 39.4427C61.722 39.4427 63.702 39.2267 65.826 38.7947L66.528 42.8447C63.684 43.5287 61.128 43.8707 58.86 43.8707Z" fill="white"/>
<path d="M70.58 53.7158C72.2467 53.7158 73.08 52.3892 73.08 49.7358C73.08 47.3625 72.4067 46.1758 71.06 46.1758C70.3 46.1758 69.5 46.4692 68.66 47.0558V53.4358C69.3267 53.6225 69.9667 53.7158 70.58 53.7158ZM68.52 45.6758C69.4 44.9958 70.3867 44.6558 71.48 44.6558C72.5733 44.6558 73.4267 45.1092 74.04 46.0158C74.6533 46.9225 74.96 48.1558 74.96 49.7158C74.96 53.3958 73.4933 55.2358 70.56 55.2358C69.8667 55.2358 69.2333 55.1025 68.66 54.8358V59.2558L66.86 59.4558V44.8358H68.38L68.52 45.6758ZM79.3716 55.2358C78.5049 55.2358 77.8116 54.9825 77.2916 54.4758C76.7849 53.9692 76.5316 53.2892 76.5316 52.4358C76.5316 51.8758 76.6516 51.4025 76.8916 51.0158C77.1316 50.6292 77.4449 50.3425 77.8316 50.1558C78.5249 49.8225 79.2516 49.6558 80.0116 49.6558C80.7716 49.6558 81.4782 49.6892 82.1316 49.7558V48.1958C82.1316 47.4225 81.9982 46.8958 81.7316 46.6158C81.4782 46.3225 80.9849 46.1758 80.2516 46.1758C79.5182 46.1758 78.6449 46.3558 77.6316 46.7158L77.2116 45.4558C77.5982 45.2158 78.1049 45.0225 78.7316 44.8758C79.3716 44.7292 79.9249 44.6558 80.3916 44.6558C81.6849 44.6558 82.5982 44.9358 83.1316 45.4958C83.6649 46.0558 83.9316 46.9958 83.9316 48.3158V53.1758C83.9316 53.6425 84.0916 53.8758 84.4116 53.8758C84.6249 53.8758 84.9182 53.8158 85.2916 53.6958L85.5916 54.8158C85.1382 55.1092 84.5516 55.2558 83.8316 55.2558C83.1116 55.2558 82.5916 54.9158 82.2716 54.2358C81.9782 54.5158 81.5649 54.7558 81.0316 54.9558C80.5116 55.1425 79.9582 55.2358 79.3716 55.2358ZM79.7516 53.8158C80.5916 53.8158 81.3849 53.5758 82.1316 53.0958V50.7758C81.8116 50.7225 81.2916 50.6958 80.5716 50.6958C79.0116 50.6958 78.2249 51.2158 78.2116 52.2558C78.2116 53.2958 78.7249 53.8158 79.7516 53.8158ZM88.7577 54.9758H86.9577V44.8558H88.4577L88.6577 46.3558C88.8977 45.9558 89.291 45.5758 89.8377 45.2158C90.3977 44.8425 91.031 44.6558 91.7377 44.6558C92.1243 44.6558 92.4177 44.6892 92.6177 44.7558L92.2577 46.1958C92.1377 46.1825 91.9643 46.1758 91.7377 46.1758C90.2843 46.1758 89.291 46.7025 88.7577 47.7558V54.9758ZM97.7042 55.2358C96.6642 55.2358 95.9776 55.0225 95.6442 54.5958C95.3109 54.1558 95.1442 53.4092 95.1442 52.3558V46.2758L93.1642 46.1758L93.3442 44.9958L95.1842 44.8558L95.3642 42.4558L96.9842 42.1558V44.8558H99.9442L99.7642 46.2758H96.9642V52.5358C96.9642 52.8158 96.9709 53.0292 96.9842 53.1758C97.0109 53.3092 97.0842 53.4358 97.2042 53.5558C97.3376 53.6625 97.6176 53.7158 98.0442 53.7158C98.4709 53.7158 98.8976 53.6425 99.3242 53.4958L99.6642 54.8358C99.0376 55.1025 98.3842 55.2358 97.7042 55.2358ZM105.429 55.2358C103.936 55.2358 102.822 54.7292 102.089 53.7158C101.369 52.6892 101.009 51.4092 101.009 49.8758C101.009 48.3292 101.396 47.0758 102.169 46.1158C102.942 45.1425 104.002 44.6558 105.349 44.6558C106.482 44.6558 107.342 44.9758 107.929 45.6158C108.529 46.2425 108.829 47.0758 108.829 48.1158C108.829 48.5825 108.729 49.1825 108.529 49.9158H102.649C102.676 51.0492 102.922 51.9692 103.389 52.6758C103.856 53.3825 104.549 53.7358 105.469 53.7358C106.402 53.7358 107.282 53.5492 108.109 53.1758L108.569 54.4158C107.609 54.9625 106.562 55.2358 105.429 55.2358ZM107.189 48.4558C107.189 47.7358 107.042 47.1692 106.749 46.7558C106.456 46.3425 106.049 46.1358 105.529 46.1358C105.009 46.1358 104.576 46.2292 104.229 46.4158C103.896 46.5892 103.636 46.8158 103.449 47.0958C103.129 47.6292 102.929 48.1225 102.849 48.5758L107.189 48.6158V48.4558ZM110.841 53.1358C111.721 53.5225 112.527 53.7158 113.261 53.7158C113.994 53.7158 114.527 53.5825 114.861 53.3158C115.207 53.0358 115.381 52.6958 115.381 52.2958C115.381 51.8825 115.214 51.5358 114.881 51.2558C114.561 50.9758 114.167 50.7558 113.701 50.5958C113.234 50.4225 112.761 50.2425 112.281 50.0558C111.814 49.8692 111.414 49.5758 111.081 49.1758C110.761 48.7625 110.601 48.2492 110.601 47.6358C110.601 46.7292 110.921 46.0092 111.561 45.4758C112.201 44.9292 113.067 44.6558 114.161 44.6558C115.254 44.6558 116.134 44.8492 116.801 45.2358L116.381 46.5758C115.607 46.3092 114.894 46.1758 114.241 46.1758C113.587 46.1758 113.101 46.2958 112.781 46.5358C112.461 46.7758 112.301 47.1025 112.301 47.5158C112.301 47.9158 112.467 48.2492 112.801 48.5158C113.134 48.7825 113.534 48.9958 114.001 49.1558C114.481 49.3158 114.954 49.4958 115.421 49.6958C115.887 49.8825 116.287 50.1758 116.621 50.5758C116.954 50.9758 117.121 51.4758 117.121 52.0758C117.121 52.9558 116.794 53.7025 116.141 54.3158C115.487 54.9292 114.554 55.2358 113.341 55.2358C112.781 55.2358 112.214 55.1625 111.641 55.0158C111.081 54.8692 110.661 54.6958 110.381 54.4958L110.841 53.1358Z" fill="white"/>
</svg>
