<svg width="158" height="89" viewBox="0 0 158 89" fill="none" xmlns="http://www.w3.org/2000/svg">
<path d="M36.54 27.56C36.5 26.72 36.48 25.88 36.48 25.04C36.48 24.2 36.5 23.36 36.54 22.52L25.62 51.62H21.06L10.14 22.52C10.18 23.36 10.2 24.2 10.2 25.04C10.2 25.88 10.18 26.72 10.14 27.56L9.18 56H3.9L5.76 15.92H12.42L23.34 45.62L34.26 15.92H40.92L42.78 56H37.5L36.54 27.56Z" fill="white"/>
<path d="M67.4 56.78C55.88 56.78 50.12 49.82 50.12 35.9C50.12 28.7 51.58 23.44 54.5 20.12C57.46 16.8 61.52 15.14 66.68 15.14C69.4 15.14 72.42 15.6 75.74 16.52L74.66 21.02C71.98 20.42 69.62 20.12 67.58 20.12C63.9 20.12 61.02 21.3 58.94 23.66C56.9 26.02 55.88 30.02 55.88 35.66C55.88 46.46 60.1 51.86 68.54 51.86C70.58 51.86 72.78 51.62 75.14 51.14L75.92 55.64C72.76 56.4 69.92 56.78 67.4 56.78Z" fill="white"/>
<path d="M86.62 69.9171C89.12 69.9171 90.37 67.9271 90.37 63.9471C90.37 60.3871 89.36 58.6071 87.34 58.6071C86.2 58.6071 85 59.0471 83.74 59.9271V69.4971C84.74 69.7771 85.7 69.9171 86.62 69.9171ZM83.53 57.8571C84.85 56.8371 86.33 56.3271 87.97 56.3271C89.61 56.3271 90.89 57.0071 91.81 58.3671C92.73 59.7271 93.19 61.5771 93.19 63.9171C93.19 69.4371 90.99 72.1971 86.59 72.1971C85.55 72.1971 84.6 71.9971 83.74 71.5971V78.2271L81.04 78.5271V56.5971H83.32L83.53 57.8571ZM99.8073 72.1971C98.5073 72.1971 97.4673 71.8171 96.6873 71.0571C95.9273 70.2971 95.5473 69.2771 95.5473 67.9971C95.5473 67.1571 95.7273 66.4471 96.0873 65.8671C96.4473 65.2871 96.9173 64.8571 97.4973 64.5771C98.5373 64.0771 99.6273 63.8271 100.767 63.8271C101.907 63.8271 102.967 63.8771 103.947 63.9771V61.6371C103.947 60.4771 103.747 59.6871 103.347 59.2671C102.967 58.8271 102.227 58.6071 101.127 58.6071C100.027 58.6071 98.7173 58.8771 97.1973 59.4171L96.5673 57.5271C97.1473 57.1671 97.9073 56.8771 98.8473 56.6571C99.8073 56.4371 100.637 56.3271 101.337 56.3271C103.277 56.3271 104.647 56.7471 105.447 57.5871C106.247 58.4271 106.647 59.8371 106.647 61.8171V69.1071C106.647 69.8071 106.887 70.1571 107.367 70.1571C107.687 70.1571 108.127 70.0671 108.687 69.8871L109.137 71.5671C108.457 72.0071 107.577 72.2271 106.497 72.2271C105.417 72.2271 104.637 71.7171 104.157 70.6971C103.717 71.1171 103.097 71.4771 102.297 71.7771C101.517 72.0571 100.687 72.1971 99.8073 72.1971ZM100.377 70.0671C101.637 70.0671 102.827 69.7071 103.947 68.9871V65.5071C103.467 65.4271 102.687 65.3871 101.607 65.3871C99.2673 65.3871 98.0873 66.1671 98.0673 67.7271C98.0673 69.2871 98.8373 70.0671 100.377 70.0671ZM113.886 71.8071H111.186V56.6271H113.436L113.736 58.8771C114.096 58.2771 114.686 57.7071 115.506 57.1671C116.346 56.6071 117.296 56.3271 118.356 56.3271C118.936 56.3271 119.376 56.3771 119.676 56.4771L119.136 58.6371C118.956 58.6171 118.696 58.6071 118.356 58.6071C116.176 58.6071 114.686 59.3971 113.886 60.9771V71.8071ZM127.306 72.1971C125.746 72.1971 124.716 71.8771 124.216 71.2371C123.716 70.5771 123.466 69.4571 123.466 67.8771V58.7571L120.496 58.6071L120.766 56.8371L123.526 56.6271L123.796 53.0271L126.226 52.5771V56.6271H130.666L130.396 58.7571H126.196V68.1471C126.196 68.5671 126.206 68.8871 126.226 69.1071C126.266 69.3071 126.376 69.4971 126.556 69.6771C126.756 69.8371 127.176 69.9171 127.816 69.9171C128.456 69.9171 129.096 69.8071 129.736 69.5871L130.246 71.5971C129.306 71.9971 128.326 72.1971 127.306 72.1971ZM138.893 72.1971C136.653 72.1971 134.983 71.4371 133.883 69.9171C132.803 68.3771 132.263 66.4571 132.263 64.1571C132.263 61.8371 132.843 59.9571 134.003 58.5171C135.163 57.0571 136.753 56.3271 138.773 56.3271C140.473 56.3271 141.763 56.8071 142.643 57.7671C143.543 58.7071 143.993 59.9571 143.993 61.5171C143.993 62.2171 143.843 63.1171 143.543 64.2171H134.723C134.763 65.9171 135.133 67.2971 135.833 68.3571C136.533 69.4171 137.573 69.9471 138.953 69.9471C140.353 69.9471 141.673 69.6671 142.913 69.1071L143.603 70.9671C142.163 71.7871 140.593 72.1971 138.893 72.1971ZM141.533 62.0271C141.533 60.9471 141.313 60.0971 140.873 59.4771C140.433 58.8571 139.823 58.5471 139.043 58.5471C138.263 58.5471 137.613 58.6871 137.093 58.9671C136.593 59.2271 136.203 59.5671 135.923 59.9871C135.443 60.7871 135.143 61.5271 135.023 62.2071L141.533 62.2671V62.0271ZM147.011 69.0471C148.331 69.6271 149.541 69.9171 150.641 69.9171C151.741 69.9171 152.541 69.7171 153.041 69.3171C153.561 68.8971 153.821 68.3871 153.821 67.7871C153.821 67.1671 153.571 66.6471 153.071 66.2271C152.591 65.8071 152.001 65.4771 151.301 65.2371C150.601 64.9771 149.891 64.7071 149.171 64.4271C148.471 64.1471 147.871 63.7071 147.371 63.1071C146.891 62.4871 146.651 61.7171 146.651 60.7971C146.651 59.4371 147.131 58.3571 148.091 57.5571C149.051 56.7371 150.351 56.3271 151.991 56.3271C153.631 56.3271 154.951 56.6171 155.951 57.1971L155.321 59.2071C154.161 58.8071 153.091 58.6071 152.111 58.6071C151.131 58.6071 150.401 58.7871 149.921 59.1471C149.441 59.5071 149.201 59.9971 149.201 60.6171C149.201 61.2171 149.451 61.7171 149.951 62.1171C150.451 62.5171 151.051 62.8371 151.751 63.0771C152.471 63.3171 153.181 63.5871 153.881 63.8871C154.581 64.1671 155.181 64.6071 155.681 65.2071C156.181 65.8071 156.431 66.5571 156.431 67.4571C156.431 68.7771 155.941 69.8971 154.961 70.8171C153.981 71.7371 152.581 72.1971 150.761 72.1971C149.921 72.1971 149.071 72.0871 148.211 71.8671C147.371 71.6471 146.741 71.3871 146.321 71.0871L147.011 69.0471Z" fill="white"/>
</svg>
