<svg width="134" height="101" viewBox="0 0 134 101" fill="none" xmlns="http://www.w3.org/2000/svg">
<path d="M36.54 27.56C36.5 26.72 36.48 25.88 36.48 25.04C36.48 24.2 36.5 23.36 36.54 22.52L25.62 51.62H21.06L10.14 22.52C10.18 23.36 10.2 24.2 10.2 25.04C10.2 25.88 10.18 26.72 10.14 27.56L9.18 56H3.9L5.76 15.92H12.42L23.34 45.62L34.26 15.92H40.92L42.78 56H37.5L36.54 27.56Z" fill="white"/>
<path d="M43.4 68.9487C31.88 68.9487 26.12 61.9887 26.12 48.0687C26.12 40.8687 27.58 35.6087 30.5 32.2887C33.46 28.9687 37.52 27.3087 42.68 27.3087C45.4 27.3087 48.42 27.7687 51.74 28.6887L50.66 33.1887C47.98 32.5887 45.62 32.2887 43.58 32.2887C39.9 32.2887 37.02 33.4687 34.94 35.8287C32.9 38.1887 31.88 42.1887 31.88 47.8287C31.88 58.6287 36.1 64.0287 44.54 64.0287C46.58 64.0287 48.78 63.7887 51.14 63.3087L51.92 67.8087C48.76 68.5687 45.92 68.9487 43.4 68.9487Z" fill="white"/>
<path d="M62.62 61.3992C65.12 61.3992 66.37 59.4092 66.37 55.4292C66.37 51.8692 65.36 50.0892 63.34 50.0892C62.2 50.0892 61 50.5292 59.74 51.4092V60.9792C60.74 61.2592 61.7 61.3992 62.62 61.3992ZM59.53 49.3392C60.85 48.3192 62.33 47.8092 63.97 47.8092C65.61 47.8092 66.89 48.4892 67.81 49.8492C68.73 51.2092 69.19 53.0592 69.19 55.3992C69.19 60.9192 66.99 63.6792 62.59 63.6792C61.55 63.6792 60.6 63.4792 59.74 63.0792V69.7092L57.04 70.0092V48.0792H59.32L59.53 49.3392ZM75.8073 63.6792C74.5073 63.6792 73.4673 63.2992 72.6873 62.5392C71.9273 61.7792 71.5473 60.7592 71.5473 59.4792C71.5473 58.6392 71.7273 57.9292 72.0873 57.3492C72.4473 56.7692 72.9173 56.3392 73.4973 56.0592C74.5373 55.5592 75.6273 55.3092 76.7673 55.3092C77.9073 55.3092 78.9673 55.3592 79.9473 55.4592V53.1192C79.9473 51.9592 79.7473 51.1692 79.3473 50.7492C78.9673 50.3092 78.2273 50.0892 77.1273 50.0892C76.0273 50.0892 74.7173 50.3592 73.1973 50.8992L72.5673 49.0092C73.1473 48.6492 73.9073 48.3592 74.8473 48.1392C75.8073 47.9192 76.6373 47.8092 77.3373 47.8092C79.2773 47.8092 80.6473 48.2292 81.4473 49.0692C82.2473 49.9092 82.6473 51.3192 82.6473 53.2992V60.5892C82.6473 61.2892 82.8873 61.6392 83.3673 61.6392C83.6873 61.6392 84.1273 61.5492 84.6873 61.3692L85.1373 63.0492C84.4573 63.4892 83.5773 63.7092 82.4973 63.7092C81.4173 63.7092 80.6373 63.1992 80.1573 62.1792C79.7173 62.5992 79.0973 62.9592 78.2973 63.2592C77.5173 63.5392 76.6873 63.6792 75.8073 63.6792ZM76.3773 61.5492C77.6373 61.5492 78.8273 61.1892 79.9473 60.4692V56.9892C79.4673 56.9092 78.6873 56.8692 77.6073 56.8692C75.2673 56.8692 74.0873 57.6492 74.0673 59.2092C74.0673 60.7692 74.8373 61.5492 76.3773 61.5492ZM89.8865 63.2892H87.1865V48.1092H89.4365L89.7365 50.3592C90.0965 49.7592 90.6865 49.1892 91.5065 48.6492C92.3465 48.0892 93.2965 47.8092 94.3565 47.8092C94.9365 47.8092 95.3765 47.8592 95.6765 47.9592L95.1365 50.1192C94.9565 50.0992 94.6965 50.0892 94.3565 50.0892C92.1765 50.0892 90.6865 50.8792 89.8865 52.4592V63.2892ZM103.306 63.6792C101.746 63.6792 100.716 63.3592 100.216 62.7192C99.7163 62.0592 99.4663 60.9392 99.4663 59.3592V50.2392L96.4963 50.0892L96.7663 48.3192L99.5263 48.1092L99.7963 44.5092L102.226 44.0592V48.1092H106.666L106.396 50.2392H102.196V59.6292C102.196 60.0492 102.206 60.3692 102.226 60.5892C102.266 60.7892 102.376 60.9792 102.556 61.1592C102.756 61.3192 103.176 61.3992 103.816 61.3992C104.456 61.3992 105.096 61.2892 105.736 61.0692L106.246 63.0792C105.306 63.4792 104.326 63.6792 103.306 63.6792ZM114.893 63.6792C112.653 63.6792 110.983 62.9192 109.883 61.3992C108.803 59.8592 108.263 57.9392 108.263 55.6392C108.263 53.3192 108.843 51.4392 110.003 49.9992C111.163 48.5392 112.753 47.8092 114.773 47.8092C116.473 47.8092 117.763 48.2892 118.643 49.2492C119.543 50.1892 119.993 51.4392 119.993 52.9992C119.993 53.6992 119.843 54.5992 119.543 55.6992H110.723C110.763 57.3992 111.133 58.7792 111.833 59.8392C112.533 60.8992 113.573 61.4292 114.953 61.4292C116.353 61.4292 117.673 61.1492 118.913 60.5892L119.603 62.4492C118.163 63.2692 116.593 63.6792 114.893 63.6792ZM117.533 53.5092C117.533 52.4292 117.313 51.5792 116.873 50.9592C116.433 50.3392 115.823 50.0292 115.043 50.0292C114.263 50.0292 113.613 50.1692 113.093 50.4492C112.593 50.7092 112.203 51.0492 111.923 51.4692C111.443 52.2692 111.143 53.0092 111.023 53.6892L117.533 53.7492V53.5092ZM123.011 60.5292C124.331 61.1092 125.541 61.3992 126.641 61.3992C127.741 61.3992 128.541 61.1992 129.041 60.7992C129.561 60.3792 129.821 59.8692 129.821 59.2692C129.821 58.6492 129.571 58.1292 129.071 57.7092C128.591 57.2892 128.001 56.9592 127.301 56.7192C126.601 56.4592 125.891 56.1892 125.171 55.9092C124.471 55.6292 123.871 55.1892 123.371 54.5892C122.891 53.9692 122.651 53.1992 122.651 52.2792C122.651 50.9192 123.131 49.8392 124.091 49.0392C125.051 48.2192 126.351 47.8092 127.991 47.8092C129.631 47.8092 130.951 48.0992 131.951 48.6792L131.321 50.6892C130.161 50.2892 129.091 50.0892 128.111 50.0892C127.131 50.0892 126.401 50.2692 125.921 50.6292C125.441 50.9892 125.201 51.4792 125.201 52.0992C125.201 52.6992 125.451 53.1992 125.951 53.5992C126.451 53.9992 127.051 54.3192 127.751 54.5592C128.471 54.7992 129.181 55.0692 129.881 55.3692C130.581 55.6492 131.181 56.0892 131.681 56.6892C132.181 57.2892 132.431 58.0392 132.431 58.9392C132.431 60.2592 131.941 61.3792 130.961 62.2992C129.981 63.2192 128.581 63.6792 126.761 63.6792C125.921 63.6792 125.071 63.5692 124.211 63.3492C123.371 63.1292 122.741 62.8692 122.321 62.5692L123.011 60.5292Z" fill="white"/>
</svg>
