<svg width="196" height="148" viewBox="0 0 196 148" fill="none" xmlns="http://www.w3.org/2000/svg">
<path d="M50.0828 38.0639C50.028 36.9128 50.0006 35.7617 50.0006 34.6106C50.0006 33.4595 50.028 32.3083 50.0828 31.1572L35.1155 71.035H28.8655L13.8982 31.1572C13.953 32.3083 13.9804 33.4595 13.9804 34.6106C13.9804 35.7617 13.953 36.9128 13.8982 38.0639L12.5824 77.0372H5.34546L7.89483 22.1128H17.0232L31.9905 62.8128L46.9578 22.1128H56.0862L58.6355 77.0372H51.3986L50.0828 38.0639Z" fill="black"/>
<path d="M61.6027 95.9018C45.813 95.9018 37.9182 86.364 37.9182 67.2885C37.9182 57.4218 39.9193 50.2137 43.9216 45.664C47.9786 41.1144 53.5434 38.8396 60.6158 38.8396C64.3439 38.8396 68.4832 39.47 73.0337 40.7307L71.5535 46.8974C67.8802 46.0752 64.6455 45.664 61.8494 45.664C56.8055 45.664 52.8581 47.2811 50.0072 50.5152C47.2111 53.7492 45.813 59.2307 45.813 66.9596C45.813 81.7596 51.5971 89.1596 63.1652 89.1596C65.9613 89.1596 68.9767 88.8307 72.2114 88.1729L73.2804 94.3396C68.9493 95.3811 65.0567 95.9018 61.6027 95.9018Z" fill="black"/>
<path d="M90.892 87.6839C94.3186 87.6839 96.0319 84.9568 96.0319 79.5027C96.0319 74.6242 94.6475 72.185 91.8789 72.185C90.3163 72.185 88.6716 72.7879 86.9446 73.9939V87.1083C88.3152 87.492 89.631 87.6839 90.892 87.6839ZM86.6568 71.1572C88.466 69.7594 90.4945 69.0605 92.7424 69.0605C94.9902 69.0605 96.7446 69.9924 98.0056 71.8561C99.2665 73.7198 99.897 76.255 99.897 79.4616C99.897 87.0261 96.8817 90.8083 90.8509 90.8083C89.4254 90.8083 88.1233 90.5342 86.9446 89.9861V99.0716L83.2439 99.4827V69.4305H86.3689L86.6568 71.1572ZM108.967 90.8083C107.185 90.8083 105.76 90.2876 104.691 89.2461C103.649 88.2046 103.128 86.8068 103.128 85.0527C103.128 83.9016 103.375 82.9287 103.868 82.1339C104.362 81.339 105.006 80.7498 105.801 80.3661C107.226 79.6809 108.72 79.3383 110.283 79.3383C111.845 79.3383 113.298 79.4068 114.641 79.5439V76.3372C114.641 74.7476 114.367 73.665 113.819 73.0894C113.298 72.4864 112.284 72.185 110.776 72.185C109.269 72.185 107.473 72.555 105.39 73.295L104.526 70.705C105.321 70.2116 106.363 69.8142 107.651 69.5127C108.967 69.2113 110.105 69.0605 111.064 69.0605C113.723 69.0605 115.601 69.6361 116.697 70.7872C117.794 71.9383 118.342 73.8705 118.342 76.5839V86.5739C118.342 87.5331 118.671 88.0127 119.329 88.0127C119.768 88.0127 120.371 87.8894 121.138 87.6427L121.755 89.945C120.823 90.5479 119.617 90.8494 118.137 90.8494C116.656 90.8494 115.587 90.1505 114.929 88.7527C114.326 89.3283 113.476 89.8216 112.38 90.2327C111.311 90.6164 110.173 90.8083 108.967 90.8083ZM109.748 87.8894C111.475 87.8894 113.106 87.3961 114.641 86.4094V81.6405C113.984 81.5309 112.914 81.4761 111.434 81.4761C108.227 81.4761 106.61 82.545 106.582 84.6827C106.582 86.8205 107.638 87.8894 109.748 87.8894ZM128.264 90.2739H124.564V69.4716H127.647L128.059 72.555C128.552 71.7327 129.361 70.9516 130.485 70.2116C131.636 69.4442 132.938 69.0605 134.391 69.0605C135.186 69.0605 135.789 69.129 136.2 69.2661L135.46 72.2261C135.213 72.1987 134.857 72.185 134.391 72.185C131.403 72.185 129.361 73.2676 128.264 75.4327V90.2739ZM146.657 90.8083C144.519 90.8083 143.108 90.3698 142.422 89.4927C141.737 88.5883 141.394 87.0535 141.394 84.8883V72.3905L137.323 72.185L137.694 69.7594L141.476 69.4716L141.847 64.5383L145.177 63.9216V69.4716H151.263L150.893 72.3905H145.136V85.2583C145.136 85.8339 145.15 86.2724 145.177 86.5739C145.232 86.8479 145.383 87.1083 145.629 87.355C145.904 87.5742 146.479 87.6839 147.356 87.6839C148.234 87.6839 149.111 87.5331 149.988 87.2316L150.687 89.9861C149.399 90.5342 148.055 90.8083 146.657 90.8083ZM162.539 90.8083C159.469 90.8083 157.18 89.7668 155.672 87.6839C154.192 85.5735 153.452 82.9424 153.452 79.7905C153.452 76.6113 154.247 74.035 155.837 72.0616C157.426 70.0609 159.606 69.0605 162.374 69.0605C164.705 69.0605 166.473 69.7183 167.679 71.0339C168.912 72.322 169.529 74.035 169.529 76.1727C169.529 77.132 169.324 78.3653 168.912 79.8727H156.823C156.878 82.2024 157.385 84.0935 158.345 85.5461C159.304 86.9987 160.73 87.725 162.621 87.725C164.54 87.725 166.349 87.3413 168.049 86.5739L168.995 89.1227C167.021 90.2464 164.869 90.8083 162.539 90.8083ZM166.157 76.8716C166.157 75.3916 165.856 74.2268 165.253 73.3772C164.65 72.5276 163.814 72.1027 162.745 72.1027C161.675 72.1027 160.785 72.2946 160.072 72.6783C159.386 73.0346 158.852 73.5005 158.468 74.0761C157.81 75.1724 157.399 76.1864 157.235 77.1183L166.157 77.2005V76.8716ZM173.666 86.4916C175.475 87.2864 177.133 87.6839 178.641 87.6839C180.149 87.6839 181.245 87.4098 181.931 86.8616C182.643 86.2861 183 85.5872 183 84.765C183 83.9153 182.657 83.2027 181.972 82.6272C181.314 82.0516 180.505 81.5994 179.546 81.2705C178.586 80.9142 177.613 80.5442 176.626 80.1605C175.667 79.7768 174.844 79.1739 174.159 78.3516C173.501 77.502 173.172 76.4468 173.172 75.1861C173.172 73.3224 173.83 71.8424 175.146 70.7461C176.462 69.6224 178.244 69.0605 180.491 69.0605C182.739 69.0605 184.548 69.4579 185.919 70.2527L185.056 73.0072C183.466 72.459 181.999 72.185 180.656 72.185C179.313 72.185 178.312 72.4316 177.654 72.925C176.996 73.4183 176.667 74.0898 176.667 74.9394C176.667 75.7616 177.01 76.4468 177.695 76.995C178.381 77.5431 179.203 77.9816 180.162 78.3105C181.149 78.6394 182.122 79.0094 183.082 79.4205C184.041 79.8042 184.864 80.4072 185.549 81.2294C186.234 82.0516 186.577 83.0794 186.577 84.3127C186.577 86.1216 185.905 87.6564 184.562 88.9172C183.219 90.1779 181.3 90.8083 178.806 90.8083C177.654 90.8083 176.489 90.6576 175.31 90.3561C174.159 90.0546 173.296 89.6983 172.72 89.2872L173.666 86.4916Z" fill="black"/>
</svg>
